<?xml version="1.0" encoding="utf-8"?><svg viewBox="0 0 657 502.66" xmlns="http://www.w3.org/2000/svg" xmlns:xlink="http://www.w3.org/1999/xlink"><style>:root>svg{display:none}:root>svg:target{display:block}</style><svg viewBox="0 0 657 384" id="IMAGE" xmlns="http://www.w3.org/2000/svg"><g clip-path="url(#aa)"><path d="M147.396 303.161c0 59.885-18.954 80.556-73.693 80.556S0 363.046 0 303.161V6.371h26.315v267.106c0 24.909 13.69 34.976 47.377 34.976 33.688 0 47.378-10.067 47.378-34.976V6.371h26.326v296.79zm96.489 74.2h-73.692v-75.254h73.692c38.951 0 47.378-10.067 47.378-34.976V6.371h26.326v290.423c0 59.368-13.163 80.567-73.704 80.567zm169.135 0h-73.693v-75.254h73.693c38.95 0 47.377-10.067 47.377-34.976V6.371h26.326v290.423c-.011 59.368-13.174 80.567-73.703 80.567zm169.729 6.357c-60.541 0-73.693-21.198-73.693-80.556V80.572c0-59.358 13.163-80.557 73.693-80.557 60.54 0 73.692 21.198 73.692 80.556v222.591c0 59.358-13.152 80.556-73.692 80.556zm0-308.448c-38.951 0-47.378 10.066-47.378 34.975v163.232c0 24.909 8.427 34.976 47.378 34.976 38.95 0 47.377-10.067 47.377-34.976V110.256c0-24.909-8.427-34.987-47.377-34.987v.001z"/></g><defs><clipPath id="aa"><path d="M0 0h657v384H0z"/></clipPath></defs></svg><svg viewBox="0 0 558 259" id="IMAGE-1" xmlns="http://www.w3.org/2000/svg"><g clip-path="url(#ba)"><path d="M554.061 79.447h-98.337a1.917 1.917 0 01-1.539-.78l-24.306-33.141c-12.581-17.14-23.644-28.837-32.898-34.756-4.768-3.058-11.151-5.367-18.952-6.873-7.629-1.465-16.894-2.212-27.514-2.212h-15.733a1.912 1.912 0 00-1.789 2.591l.401 1.063 8.647 22.982.195.51a1.913 1.913 0 001.789 1.235h18.919c15.073 0 26.657 1.594 34.405 4.738 7.628 3.09 15.972 10.516 24.825 22.061l14.878 19.492c.965 1.258.066 3.079-1.517 3.079H3.51a1.921 1.921 0 00-1.918 1.919v20.793a1.921 1.921 0 001.918 1.918h104.785c.488 0 .954.185 1.301.51 7.325 6.884 11.031 13.898 11.031 20.858 0 8.39-3.609 14.418-11.02 18.451-7.846 4.271-22.106 6.526-42.391 6.71l-1.3.012a1.911 1.911 0 00-1.67 2.818l.618 1.149 10.945 20.413.227.434a1.913 1.913 0 001.734 1.008l.488-.011c12.743-.336 23.633-2.125 32.411-5.323a1.907 1.907 0 011.874.336c4.692 3.914 8.311 8.207 10.771 12.793 2.796 5.182 4.205 10.938 4.205 17.075 0 7.848-2.915 13.941-8.897 18.624-6.187 4.846-13.133 7.209-21.25 7.209-8.246 0-16.568-3.393-24.717-10.071-8.419-6.895-17.532-18.093-27.057-33.281l-20.545-32.599-.402-.64a1.913 1.913 0 00-2.568-.639l-.65.379-5.678 3.252-.715.38a1.907 1.907 0 00-.905 1.196 1.916 1.916 0 00.233 1.481l.433.694 20.947 33.542c16.026 25.606 28.64 41.51 38.566 48.632 9.969 7.155 20.599 10.787 31.587 10.787 12.537 0 23.102-3.805 31.403-11.318 8.398-7.578 12.656-17.324 12.656-28.978 0-9.16-2.503-17.898-7.422-25.953-3.966-6.483-9.591-12.662-16.753-18.408a1.91 1.91 0 01-.722-1.485 1.918 1.918 0 01.7-1.496c3.566-2.938 6.437-6.341 8.582-10.158 3.1-5.529 4.671-12.022 4.671-19.307 0-9.996-3.077-18.68-9.189-25.921-1.052-1.247-.174-3.155 1.452-3.155h253.955a1.93 1.93 0 011.358.561 1.91 1.91 0 01.56 1.358v22.95a1.922 1.922 0 01-1.918 1.919H307.94c-1.712 0-2.557 2.081-1.343 3.274l1.365 1.355c16.753 16.489 26.711 27.579 29.583 32.956 2.795 5.204 4.214 9.671 4.214 13.27 0 4.683-1.408 8.315-4.301 11.09-2.937 2.818-6.653 4.184-11.378 4.184-6.556 0-14.379-4.205-23.222-12.521-7-6.569-14.433-17.649-22.095-32.924l-.021-.043-8.756-19.069-.206-.455a1.907 1.907 0 00-1.733-1.117h-72.494c-1.713 0-2.558 2.081-1.344 3.274l1.376 1.355c16.753 16.489 26.711 27.579 29.583 32.956 2.796 5.204 4.215 9.671 4.215 13.27 0 4.683-1.409 8.315-4.302 11.09-2.937 2.818-6.654 4.184-11.378 4.184-6.556 0-14.38-4.205-23.222-12.521-9.102-8.542-18.876-24.63-29.04-47.797l-.359-.824a1.905 1.905 0 00-1.175-1.053 1.915 1.915 0 00-1.566.185l-.769.456-5.407 3.252-.553.336a1.905 1.905 0 00-.812 2.287l.216.608c8.821 24.717 19.137 44.394 30.666 58.476 5.863 7.176 11.92 12.651 17.988 16.283 6.22 3.718 12.624 5.604 19.039 5.604 10.338 0 19.007-3.425 25.769-10.19 6.75-6.754 10.185-15.34 10.185-25.509 0-5.561-1.636-11.437-4.854-17.464-1.842-3.458-4.237-7.025-7.162-10.657-1.008-1.247-.12-3.112 1.484-3.112h21.098c.769 0 1.474.467 1.766 1.182 7.455 17.931 15.875 32.675 25.042 43.874 5.863 7.177 11.92 12.651 17.988 16.283 6.22 3.718 12.635 5.605 19.05 5.605 10.338 0 19.007-3.426 25.769-10.191 6.761-6.754 10.185-15.34 10.185-25.509 0-5.561-1.635-11.437-4.843-17.464-1.842-3.459-4.248-7.026-7.163-10.668-1.007-1.247-.119-3.112 1.485-3.112h28.726a1.912 1.912 0 011.773 1.185c.097.233.146.482.145.735v81.296c0 .477.184.942.51 1.3l.205.228 15.68 17.031.239.26c.368.39.878.618 1.409.618h6.815a1.924 1.924 0 001.919-1.918V106.007a1.92 1.92 0 011.917-1.919h25.249c.508.001.995.204 1.355.563.359.36.561.847.562 1.356V236.78c0 .456.163.9.467 1.247l.195.228 16.221 18.787.238.272c.358.422.889.661 1.442.661h6.122a1.923 1.923 0 001.918-1.92v-150.07a1.923 1.923 0 011.918-1.919h83.341a1.92 1.92 0 001.918-1.918V81.355a1.922 1.922 0 00-1.918-1.92l-.813.012z"/></g><defs><clipPath id="ba"><path d="M0 0h558v259H0z"/></clipPath></defs></svg><svg viewBox="0 0 502.664 502.664" id="icon" xmlns="http://www.w3.org/2000/svg"><path d="M153.821 358.226L0 274.337v-46.463l153.821-83.414v54.574L46.636 250.523l107.185 53.431v54.272zm26.273 29.358L282.103 115.08h32.227L212.084 387.584h-31.99zm168.749-29.358v-54.272l107.164-52.999-107.164-52.59v-53.927l153.821 83.522v46.183l-153.821 84.083z"/></svg></svg>